<?xml version="1.0" encoding="UTF-8"?>
<svg id="_レイヤー_2" data-name="レイヤー 2" xmlns="http://www.w3.org/2000/svg" viewBox="0 0 512 512">
  <defs>
    <style>
      .cls-1 {
        fill: #6e9530;
        opacity: .6;
      }
    </style>
  </defs>
  <polygon class="cls-1" points="32.33 40.44 363.13 44.38 363.13 86 406.79 88.38 483.46 156.2 487 232.28 495.84 256 472.25 330.77 457.51 330.77 448.66 352 380.25 408.03 327.17 420.41 297.1 417.46 264.08 459.93 192.71 492.36 89.5 479.39 29.35 428.08 29.35 380.31 60.02 359.08 94.81 365.57 173.25 434.57 256 408.03 259.35 365.57 232.22 301.28 251.1 244.67 256 186.28 281.76 146.18 272.85 114.92 29.35 114.92 32.33 40.44"/>
</svg>