<?xml version="1.0" encoding="UTF-8"?>
<svg id="_レイヤー_2" data-name="レイヤー 2" xmlns="http://www.w3.org/2000/svg" viewBox="0 0 512 512">
  <defs>
    <style>
      .cls-1 {
        fill: #6e9530;
        opacity: .63;
      }
    </style>
  </defs>
  <polygon class="cls-1" points="156.27 23.05 168.99 18.6 198.89 37.04 223.69 89.84 270.76 107.65 322.29 85.39 339.46 34.5 360.45 18.6 373.81 25.59 354.09 43.4 331.19 114.01 289.21 134.37 286.03 168.08 344.55 190.98 369.36 239.96 373.81 260.95 366.81 291.48 439.33 294.66 439.33 351.91 350.91 351.91 355.36 461.73 386.91 480.4 376.35 492.48 342.64 484.22 263.13 370.36 194.43 485.49 156.27 495.67 141 489.3 146.73 472.77 167.72 465.77 179.8 350 93.93 350.64 93.93 292.12 171.53 294.02 156.27 260.95 203.34 178.26 252.32 169.35 248.5 128.64 208.43 114.01 181.71 42.77 156.27 23.05"/>
</svg>