<?xml version="1.0" encoding="UTF-8"?>
<svg id="_レイヤー_2" data-name="レイヤー 2" xmlns="http://www.w3.org/2000/svg" viewBox="0 0 512 512">
  <defs>
    <style>
      .cls-1 {
        fill: #b8ddc2;
        opacity: .59;
        stroke: #231815;
        stroke-miterlimit: 10;
      }
    </style>
  </defs>
  <polygon class="cls-1" points="58.65 89.47 251.21 89.47 251.21 36.6 287.78 13.24 316.86 22.06 342.42 87.27 454.78 67 449.94 89.47 366.21 102.25 351.67 137.06 319.51 147.2 327.44 165.26 358.28 174.52 386.04 238.94 377.23 303.63 326.12 375.89 313.34 424.8 263.54 478.56 158.67 502.8 234.46 410.7 175.86 410.26 139.72 391.31 118.13 419.07 100.51 400.13 192.6 339.76 234.46 335.35 297.03 365.32 324.79 321.25 321.27 280.27 284.87 211.53 284.87 175.4 256 144.99 215.96 214.18 197.89 227.84 180.26 222.99 180.7 213.73 206.7 207.57 241.07 143.67 58.65 143.23 58.65 89.47"/>
</svg>