<?xml version="1.0" encoding="UTF-8"?>
<svg id="_レイヤー_2" data-name="レイヤー 2" xmlns="http://www.w3.org/2000/svg" viewBox="0 0 512 512">
  <defs>
    <style>
      .cls-1 {
        fill: #b8ddc2;
        opacity: .72;
        stroke: #231815;
        stroke-miterlimit: 10;
      }
    </style>
  </defs>
  <path class="cls-1" d="M254.71,20.83l27.85,9.45,7.71,20.64-1.99,15.17,16.16,12.43-12.18,4.23,7.21,10.69,16.91,3.73-12.43,3.23,9.45,6.22,46-6.96,59.43-4.48,27.6-11.19v13.68l-13.18-.5-4.48,6.71,12.93,6.47-5.97,1.49-27.6-3.73-45.75,12.68-23.37,2.49s-4.53,31.36-17.98,42.89-32.19,11.05-32.19,11.05l.96,12.49,7.69,5.28h42.47l33.16-10.87-16.02,17.6s13.76,4.51,17.37,10.38,24.59,5.87,24.59,5.87c0,0-13.08,1.35-12.86,4.29s35.64,3.61,48.5,13.76,21.88,19.63,23.46,36.32c0,0,23.91,20.08,31.81,31.58s12.41,22.56,12.41,22.56l-5.87,21.66-20.98,20.75-1.35,9.02s-23.01,31.13-42.18,30.68c0,0,31.36-17.14,32.48-36.54s-.45-30-5.64-38.12-12.41-13.99-12.41-13.99l-18.05,4.51s-5.41,13.76-4.51,21.2-28.65,10.15-28.65,10.15c0,0-2.23,17.82-16.68,20.98s-31.37-1.35-31.37-1.35c0,0-14.68,22.2-39.85,35.23s-47.9,15.16-47.9,15.16l-20.61,11.82s-40.93,46.08-75.18,49.11-56.99-1.82-76.09-11.52-63.36-27.28-71.55-26.98,23.34-11.82,33.35-21.22,41.84-23.65,55.78-23.95,43.96,1.52,43.96,1.52c0,0-43.35-16.07-56.69-35.17s-27.28-43.05-27.28-43.05c0,0-29.1,2.12-38.5,16.67s4.55-14.25,8.49-17.58,15.16-11.52,15.16-11.52l-31.23.91,13.64-5.46,66.39-6.06s62.45.61,80.64,16.37c0,0,23.34-4.55,32.14-14.55s16.37-45.17,16.37-45.17l21.83-40.02-11.52-20.92-90.65,70.94-16.98-6.37-1.52-5.76-27.28-9.7s-16.07-10.61-23.04-22.13-10-28.19-20.61-33.95-33.65-6.97-33.65-6.97l10.61-4.85s27.89,3.03,43.35,10.61,62.15,34.56,69.12,34.86,6.37-2.43,6.37-2.43c0,0,6.67-21.52,11.82-25.77s35.47-28.8,35.47-28.8l6.67-46.99-.61-15.46-2.12-19.71,16.37-24.56s-10.31-7.58-10-13.04,16.98-1.21,16.98-1.21c0,0,11.52-20.01,14.55-22.13s11.35-4.8,11.35-4.8Z"/>
</svg>