<?xml version="1.0" encoding="UTF-8"?>
<svg id="_レイヤー_2" data-name="レイヤー 2" xmlns="http://www.w3.org/2000/svg" viewBox="0 0 512 512">
  <defs>
    <style>
      .cls-1 {
        fill: #b8ddc2;
        opacity: .72;
        stroke: #231815;
        stroke-miterlimit: 10;
      }
    </style>
  </defs>
  <path class="cls-1" d="M338.18,15.68l10.25-.84s25.04,13.44,26.05,19.32-6.22,34.45-6.22,34.45l10.59,16.64-13.78-1.01,10.03,25.64,97.34,24.59h34.85l-15.06,24.53-28.4-15.06-71.86.43s-9.47,27.11-24.1,29.69-35.28,0-35.28,0c0,0,2.58,12.91,21.95,27.54s18.5,76.59,18.5,76.59c0,0-10.33,71.43-64.55,107.15s-49.05,30.55-49.05,30.55l-17.64,15.06s-6.45,35.28-46.9,58.09-77.02,14.63-98.11,10.76-68.85-8.18-68.85-8.18c0,0,24.53-18.93,35.28-33.99s53.36-35.72,83.05-37.01c0,0-39.59-5.16-53.79-14.63s-31.41-37.87-40.45-41.31-33.99,25.82-33.99,25.82l-12.48-30.12s83.11-39.65,137.54-31.77,82.03,66.26,82.03,66.26c0,0,59.51-33.13,59.73-67.83s-13.98-76.67-13.19-95.52,10.61-29.11,13.19-44.09-19.5-40.23-19.5-40.23l-74.93,60.74-27.61.79-3.16-17.35,32.34.79,92.86-97.81v-38.65l20.72-11.83-4.73-16.56,19.72,2.37,17.6-13.99Z"/>
</svg>