<?xml version="1.0" encoding="UTF-8"?>
<svg id="_レイヤー_2" data-name="レイヤー 2" xmlns="http://www.w3.org/2000/svg" viewBox="0 0 512 512">
  <defs>
    <style>
      .cls-1 {
        fill: #b8ddc2;
        opacity: .64;
        stroke: #231815;
        stroke-miterlimit: 10;
      }
    </style>
  </defs>
  <path class="cls-1" d="M218.63,36.22c4.27.61,40.36-3.05,71.83,12.82,35.49,17.9,70.03,46.03,78.72,91.03,1.95,10.09,0,15.71,0,15.71l32.89,64.89,12.27-3.97-10.82,10.46v19.12l14.43,7.22,6.13,23.09,33.92,24.17v22.01l-9.74,22.73,7.22,23.09-15.51,32.47s-48.96,39.4-114.49,58.92-117.13,29.75-142.69,33-110.16,11.15-125.03,5.11l-8.13-50.66,8.59-25.56s-11.14-3.72-8.59-26.03,37.41-85.99,37.41-85.99l-8.83-5.58s-6.04-23.7-4.18-30.21,11.15-22.77,11.15-22.77c0,0-22.08,6.04-28.82-2.32,0,0,16.27.93,25.56-7.44s23.7-41.37,23.7-41.37c0,0-20.78-42.11-18.82-59.78s35.34-55.62,35.34-55.62c0,0-18.98,6.54-28.14-1.31,0,0,27.48,1.31,39.92-11.78s34.03-27.48,42.54-30.76,25.66-5.91,33.36-5.91c0,0-1.04-13.73,3.54-16.44s15.61-9.16,27.88-9.16,21.02,3.13,21.64,4.17-1.04,2.5-1.04,2.5c0,0-7.08-4.79-22.27-3.33s-23.51,10.61-23.93,12.69-2.32,10.01,2.99,10.76Z"/>
</svg>