<?xml version="1.0" encoding="UTF-8"?>
<svg id="_レイヤー_2" data-name="レイヤー 2" xmlns="http://www.w3.org/2000/svg" viewBox="0 0 512 512">
  <defs>
    <style>
      .cls-1 {
        fill: #b8ddc2;
        opacity: .66;
        stroke: #231815;
        stroke-miterlimit: 10;
      }
    </style>
  </defs>
  <path class="cls-1" d="M138.27,73.84s-.95-19.05,8.26-26.67S235.85,11.67,235.85,11.67l64.92,3.42,76.63,58.75,24.89,32.53,8.3,56.62-2.93,38.07s12.69,21.85,6.83,48.51-14.64,74.01-32.7,77.91-11.23-2.93-11.23-2.93l-10.74,22.45s-72.24,67.85-85.42,72.73-49.3,21.48-69.8,21.48-41.98-7.32-41.98-7.32l4.88,64.92-29.28,3.9-31.25-4.88,7.32-127.88-32.7-81.03,5.37-32.92,10.74-25.17,5.37-42.47,4.88-18.55-1.95-19.04,6.83-18.06,41-53.2-15.58-5.68Z"/>
</svg>