<?xml version="1.0" encoding="UTF-8"?>
<svg id="_レイヤー_2" data-name="レイヤー 2" xmlns="http://www.w3.org/2000/svg" viewBox="0 0 512 512">
  <defs>
    <style>
      .cls-1 {
        fill: #b8ddc2;
        opacity: .63;
      }
    </style>
  </defs>
  <path class="cls-1" d="M245.84,38.43s35.28,2.48,42.71,13,29.09,71.18,27.85,90.98c0,0,76.13,34.89,87.27,51.8s90.55,135.74,90.55,158.64-4.51,44.56-17.51,44.56c0,0,25.38,48.9,12.38,57.56s-31.57,0-31.57,0l-20.42,47.73h-193.73l12.64-57.02,4.69-107.7-34.04,26s-80.46-26.61-112.03-51.99S10.02,211.12,10.02,211.12l3.09-26,27.85-21.04h29.71l25.38,78.61s72.42,45.18,102.12,45.8l14.85-38.92-3.09-14.31-32.8-37.76,15.47-107.7s10.52-37.76,23.52-44.56,29.71-6.81,29.71-6.81Z"/>
</svg>