<?xml version="1.0" encoding="UTF-8"?>
<svg id="_レイヤー_2" data-name="レイヤー 2" xmlns="http://www.w3.org/2000/svg" viewBox="0 0 512 512">
  <defs>
    <style>
      .cls-1 {
        fill: #b8ddc2;
        opacity: .61;
        stroke: #231815;
        stroke-miterlimit: 10;
      }
    </style>
  </defs>
  <path class="cls-1" d="M228.37,53.03l20.2-11.78,58.25-21.55,37.04-2.02,34.34,4.04,50.95,41.86,36.06,41.65,8.63,51.3-3.56,33.01,7.62,19.3v24.38s-8.63,61.46-26.41,75.17-86.34,80.76-103.61,86.85-59.68,17.27-75.04,17.27-25.52-4.57-25.52-4.57c0,0-17.27,48.76-52.82,74.15s-60.44,17.78-66.03,18.28-41.65-8.13-60.95-28.95-39.62-50.28-39.62-50.28l-2.03-46.73,28.95-29.46,24.38,11.17s25.9,71.61,65.01,76.69,55.36-29.97,55.36-29.97l2.54-54.34-28.95-77.2,18.79-67.04,4.57-62.98,44.69-61.96-18.28-6.6,5.42-19.69Z"/>
</svg>