<?xml version="1.0" encoding="UTF-8"?>
<svg id="_レイヤー_2" data-name="レイヤー 2" xmlns="http://www.w3.org/2000/svg" viewBox="0 0 512 512">
  <defs>
    <style>
      .cls-1 {
        fill: #6e9530;
        opacity: .65;
      }
    </style>
  </defs>
  <polygon class="cls-1" points="147.63 57.67 196.88 37.72 250.5 37.72 276.69 65.15 294.77 51.44 331.56 65.15 342.15 98.82 312.23 131.87 322.83 221.65 312.15 266.19 486.13 269.14 485.71 315.84 322.1 315.45 325.32 366.92 342.15 369.42 342.15 381.26 325.94 399.34 282.3 383.13 244.89 445.48 251.75 471.67 244.89 486.01 216.21 474.79 208.73 454.21 183.79 457.95 191.89 486.01 188.15 499.73 168.2 504.09 150.12 481.64 147.63 451.09 120.82 428.65 104.61 381.89 46.62 404.95 19.19 386.25 24.8 369.42 54.1 361.31 95.25 279.63 72.18 220.4 102.11 119.4 80.91 103.19 80.91 75.75 98.37 48.32 128.92 44.58 147.63 57.67"/>
</svg>