<?xml version="1.0" encoding="UTF-8"?>
<svg id="_レイヤー_2" data-name="レイヤー 2" xmlns="http://www.w3.org/2000/svg" viewBox="0 0 512 512">
  <defs>
    <style>
      .cls-1 {
        fill: #b8ddc2;
        opacity: .69;
      }
    </style>
  </defs>
  <path class="cls-1" d="M155,27.05l21.01-3.17s23.79,11.1,28.94,33.3,11.89,36.47,29.73,44.4,58.67,7.53,67.39,3.17,23.39-16.25,25.77-26.96,6.34-36.07,13.48-43.21,15.06-10.31,22.6-8.72l7.53,1.59s-15.06,10.7-18.24,19.82-9.91,53.91-19.42,65.41-34.49,24.18-45.59,25.77l-3.57,33.7,57.48,24.58,26.56,49.16,4.76,21.01-9.12,22.99,7.14,30.92-10.31,13.08h-12.69l5.15,131.61,26.16,10.31,7.14,8.32s-3.96,13.08-12.69,13.08-29.73-9.12-33.7-13.48-57.09-99.5-57.09-99.5c0,0-8.72-9.51-19.03-9.51s-26.16,16.25-26.16,16.25l-44.8,94.75s-28.94,13.08-38.45,13.08-14.27-.79-14.27-8.32,28.94-18.24,32.9-23.79l-5.95-6.74,12.69-91.57,1.59-42.81-9.51,8.32-8.32-5.15-1.98-11.5,9.51-25.37-14.67-28.15,49.16-81.27,47.57-8.32,2.29-11.1-7.44-18.63v-8.72s-15.86-2.77-30.13-11.1-26.56-35.28-30.52-48.76-2.77-23.79-8.72-32.51-24.18-16.25-24.18-16.25Z"/>
</svg>