<?xml version="1.0" encoding="UTF-8"?>
<svg id="_レイヤー_2" data-name="レイヤー 2" xmlns="http://www.w3.org/2000/svg" viewBox="0 0 512 512">
  <defs>
    <style>
      .cls-1 {
        fill: #b8ddc2;
        opacity: .68;
        stroke: #231815;
        stroke-miterlimit: 10;
      }
    </style>
  </defs>
  <path class="cls-1" d="M270.49,14.94c8.28,0,29.15-.99,40.74,8.61s20.21,20.54,20.21,20.54c0,0,10.27-14.27,19.87-14.59s30.14,4.98,40.08,16.91,7.29,36.77,0,45.05-16.56,18.22-22.86,19.21l15.57,94.73s-4.31,50.02-12.92,61.28c0,0,16.56,40.41,17.22,54.99s2.32,32.13,2.32,32.13l14.24,5.63,5.3,7.62-17.56,5.96-3.97,6.96,6.29,8.28-45.38-12.92s-22.86,50.68-41.74,64.92c0,0,11.59,21.2,9.61,29.81s-7.29,12.92-15.9,10.6-23.19-20.54-27.82-33.12l-26.98,7.29s9.78,23.34,9.18,30.71-1.47,15.09-10.25,15.26-12.11,1.05-19.3-7.02-10.7-17.9-10.7-17.9l-5.09-22.81-11.4-13.51-18.42-17.02-16.84-30.88v-14.04l-62.02,28.2,3.04-13.41-25.81-4.81-3.8-4.55,12.9-1.77,7.59-6.58-17.2-5.82,32.89-11.39,39.98-86.28s-29.63-43.15-25-74.9,26.46-89.96,26.46-89.96c0,0-21.17-3.31-23.81-17.2s-.66-31.75,11.91-45.64,17.86-16.54,29.1-16.54,25.8,18.52,25.8,18.52c0,0,19.33-13.94,32.56-19.9s41.91-10.68,41.91-10.68Z"/>
</svg>