<?xml version="1.0" encoding="UTF-8"?>
<svg id="_レイヤー_2" data-name="レイヤー 2" xmlns="http://www.w3.org/2000/svg" viewBox="0 0 512 512">
  <defs>
    <style>
      .cls-1 {
        fill: #b8ddc2;
        opacity: .66;
        stroke: #231815;
        stroke-miterlimit: 10;
      }
    </style>
  </defs>
  <path class="cls-1" d="M256,12.17c14.07.11,81.03,7.21,108.95,29.72s48.94,44.13,53.44,54.94,15.85,56.2,14.99,83.48-5.97,33.68,3.41,61.38,18.33,11.08,18.33,40.5-32.4,55.42-55.84,56.69c0,0-14.92,17.05-28.99,20.04s-65.22,0-65.22,0l.85,10.23,32.82,15.77,24.3,23.02,45.61,10.23,4.26,6.82-4.69,25.58-17.9,15.77h-9.8l-20.04,8.53h-11.08l-15.35,8.1h-12.79l-22.59,8.95h-15.77l-14.49,2.98-19.18-8.1-29.41,11.94-25.58-5.12-18.76-8.1-7.25-14.49-22.59-.43-2.56-14.92-22.17-24.72,4.26-8.53,36.23-15.35,30.27-26,28.99-2.56s22.17-2.98,21.74-24.72c0,0-7.25,5.12-18.76,5.12s-54.14.85-67.78-1.71-49.87-18.76-49.87-18.76l-5.54-26.86s-32.82-5.97-43.91-35.38,26.86-78.01,26.86-78.01c0,0,5.97-54.56,17.48-83.12s29.41-54.14,56.27-72.04,74.08-31.08,98.85-30.88Z"/>
</svg>