<?xml version="1.0" encoding="UTF-8"?>
<svg id="_レイヤー_2" data-name="レイヤー 2" xmlns="http://www.w3.org/2000/svg" viewBox="0 0 512 512">
  <defs>
    <style>
      .cls-1 {
        fill: #b8ddc2;
        opacity: .79;
        stroke: #231815;
        stroke-miterlimit: 10;
      }
    </style>
  </defs>
  <path class="cls-1" d="M302.72,45.76l21.06,10.85,10.21,14.36s26.49-6.7,29.68,0,10.21,19.79,10.21,24.89,24.25,54.89,24.25,54.89l-11.49-2.87,2.87,52.02-11.49,21.38,16.6,19.15s84.57,31.91,89.68,38.3,11.28,58.6,7.18,90.18c-4.09,31.58-12.28,77.19-28.07,88.89s-10.53,7.61-10.53,7.61h-142.34v20.88H69.18l-1.36-77.31s-1.1-48.5,3.62-54.49,33.07-47.87,33.07-47.87l-.63-8.19,21.42-35.28,7.24-2.2.63-13.18-59.84-1.31-5.51-7.24,4.25-10.39,66.46-5.35,17.95-22.36,62.05-1.57-22.99-31.5,9.76-40.63-7.56,7.24s.63-10.08,3.78-16.38,14.49-27.72,14.49-27.72c0,0-18.58,16.06-15.43,11.34s7.87-14.17,11.97-16.06,11.02-10.08,11.02-10.08l11.34-9.45,9.13,2.2s16.06-24.61,26.46-24.61c0,0-12.91,11.39-10.39,17.37,0,0,9.13-10.08,18.9-11.02,9.76-.94,29.61,12.91,29.61,12.91l-5.88-17.4Z"/>
</svg>