<?xml version="1.0" encoding="UTF-8"?>
<svg id="_レイヤー_2" data-name="レイヤー 2" xmlns="http://www.w3.org/2000/svg" viewBox="0 0 512 512">
  <defs>
    <style>
      .cls-1 {
        fill: #b8ddc2;
        opacity: .79;
        stroke: #231815;
        stroke-miterlimit: 10;
      }
    </style>
  </defs>
  <path class="cls-1" d="M279.34,22.94l23.63,12.17,11.46,16.11s29.72-7.52,33.3,0,11.46,22.2,11.46,27.93,27.21,61.58,27.21,61.58l-12.89-3.22,3.22,58.36-12.89,23.99,18.62,21.48s94.88,35.8,100.6,42.96,12.65,65.74,8.06,101.17-13.78,86.6-31.49,99.72-11.81,8.53-11.81,8.53h-178.13s-32.51-9.24-41.34-20.9-28.27-65.37-28.27-65.37l-37.1,19.43-23.32,6.01-28.62,23.67s-51.59,15.9-58.65,15.9-22.08-1.06-29.33-20.49-7.24-21.55-7.24-21.55c0,0-1.24-54.41,4.06-61.13s37.1-53.71,37.1-53.71l-.71-9.19,24.03-39.57,8.13-2.47.71-14.78-67.13-1.47-6.18-8.13,4.77-11.66,74.55-6.01,20.14-25.09,69.61-1.77-25.79-35.33,10.95-45.58-8.48,8.13s.71-11.31,4.24-18.37,16.25-31.09,16.25-31.09c0,0-20.85,18.02-17.31,12.72s8.83-15.9,13.43-18.02,12.37-11.31,12.37-11.31l12.72-10.6,10.25,2.47s18.02-27.61,29.68-27.61c0,0-14.49,12.77-11.66,19.49,0,0,10.25-11.31,21.2-12.37s33.21,14.49,33.21,14.49l-6.6-19.52Z"/>
</svg>