<?xml version="1.0" encoding="UTF-8"?>
<svg id="_レイヤー_2" data-name="レイヤー 2" xmlns="http://www.w3.org/2000/svg" viewBox="0 0 512 512">
  <defs>
    <style>
      .cls-1 {
        fill: #6e9530;
        opacity: .67;
      }
    </style>
  </defs>
  <polygon class="cls-1" points="29.88 40.75 310.07 36.27 398.61 56.44 456.89 148.34 446.8 198.78 419.91 220.89 467.47 286.2 483.79 393.79 467.47 441.99 414.3 453.03 419.91 477.85 395.25 492.42 344.81 453.03 320.16 392.67 284.29 492.42 269.72 501.39 240.53 478.97 240.53 444.23 220.41 426.3 231.61 364.65 166.61 352.32 119.54 357.93 98.24 453.03 85.91 445.35 108.33 353.45 150.92 332.15 176.7 329.91 264.12 236.89 218.17 186.45 215.92 109.12 29.88 103.51 29.88 40.75"/>
</svg>