<?xml version="1.0" encoding="UTF-8"?>
<svg id="_レイヤー_2" data-name="レイヤー 2" xmlns="http://www.w3.org/2000/svg" viewBox="0 0 512 512">
  <defs>
    <style>
      .cls-1 {
        fill: #b8ddc2;
        opacity: .7;
        stroke: #231815;
        stroke-miterlimit: 10;
      }
    </style>
  </defs>
  <path class="cls-1" d="M278.87,4.15s72.52,28.54,95.03,21.61c3.9-1.2-1.8,11.11-1.8,11.11,0,0,31.23,15.61,42.94,41.14s24.92,48.34,24.92,48.34h-13.21l.9,47.44-12.31,2.7-16.21,26.12,16.82,12.01,1.5,24.02,20.7,2.83-13.04,2.57,17.68,24.32,5.76,30.72-4.48,8s26.88,53.76,23.04,86.39-16.63,61.08-51.52,61.11c-15.98.02-25.92-2.24-25.92-2.24,0,0,15.36,30.72,5.12,38.4s-35.52,8.32-48.32-3.52-36.8-80.31-36.8-80.31l-18.88-13.76-11.92,1.92-4.4,67.51s-13.44,43.2-34.88,42.88-33.28-26.88-34.24-34.56,3.52-22.4,3.52-22.4l-18.88-17.92,10.88-83.19-7.04-3.84s-.64,12.48-5.76,13.12-42.75,1.6-48.32-12.8c-2.27-5.88-2.24-11.2-2.24-11.2,0,0-40-4.48-57.59,13.76s-29.76,44.16-29.12,78.07l.64,33.92-6.72-6.72s-1.92-54.08,5.12-71.03,24.96-40.64,42.88-47.04,48-6.08,48-6.08l-.64-12.16,41.6-59.4,54.72-25.07-7.04-33.28s-40.96-14.4-43.2-34.56-10.04-51.85-10.04-51.85l49.73-73.63-5.85-11.21,62.9-7.8-4.03-14.45Z"/>
</svg>