<?xml version="1.0" encoding="UTF-8"?>
<svg id="_レイヤー_2" data-name="レイヤー 2" xmlns="http://www.w3.org/2000/svg" viewBox="0 0 512 512">
  <defs>
    <style>
      .cls-1 {
        fill: #337fc3;
        opacity: .7;
        stroke: #060001;
        stroke-miterlimit: 10;
      }
    </style>
  </defs>
  <polygon class="cls-1" points="81.46 125.72 71.29 135.52 56.03 210.38 23.7 236.35 1.14 315.51 16.55 319.53 22.48 340.55 39.09 357.78 36.3 383.95 485.19 377.42 482.14 338.64 511.22 311.07 451.3 248.12 459.79 227.66 428.26 163.58 397.38 155.32 384.16 160.7 350.88 239.43 311.91 252.47 308.46 236.17 291.41 246.48 276.3 292.95 263.49 316.97 203.54 317.89 206.71 308.96 210.84 287.79 165.13 225.12 139.08 214.66 131.35 141.12 103.26 122.8 81.46 125.72"/>
</svg>