<?xml version="1.0" encoding="UTF-8"?>
<svg id="_レイヤー_2" data-name="レイヤー 2" xmlns="http://www.w3.org/2000/svg" viewBox="0 0 512 512">
  <defs>
    <style>
      .cls-1 {
        fill: #337fc3;
        opacity: .64;
        stroke: #060001;
        stroke-miterlimit: 10;
      }
    </style>
  </defs>
  <path class="cls-1" d="M193.28,7.63h18.37l9.38,15.73s24.89-8.48,33.37-7.87,36.74,9.8,36.74,9.8c0,0,15.19-20.13,26.85-13.78,0,0,25.08,8.12,25.43,26.14.35,18.02-3.53,23.67-6.36,25.79s-13.07,2.12-13.07,2.12l-3.89,42.74,10.24,8.48v23.31l-30.03,41.33,74.59,29.23,25.62,25.62,19.87,71.62-116.05,3.66,2.51,194.17h-105.23l2.15-195.71-116.85-2.15,38.71-87.46,67.39-31.54-23.66-64.52,19.36-63.8-16.49-5.02s-17.21-17.72-2.15-32.16c15.05-14.44,23.22-15.73,23.22-15.73Z"/>
</svg>