<?xml version="1.0" encoding="UTF-8"?>
<svg id="_レイヤー_2" data-name="レイヤー 2" xmlns="http://www.w3.org/2000/svg" viewBox="0 0 512 512">
  <defs>
    <style>
      .cls-1 {
        fill: #337fc3;
        opacity: .65;
        stroke: #060001;
        stroke-miterlimit: 10;
      }
    </style>
  </defs>
  <polygon class="cls-1" points="3.99 219.96 3.99 298.19 196.71 298.19 151.87 505.2 161.41 505.2 212.61 293.91 275.94 295.85 233.29 395.36 265.6 417.33 256 505.2 330.86 505.2 344.43 470.96 358.65 505.2 425.85 505.2 444.59 423.79 454.28 476.13 469.14 500.04 484.65 475.49 491.76 263.54 482.71 186.65 410.99 137.54 447.17 96.19 447.17 56.77 417.45 23.82 377.39 31.57 353.48 66.46 356.71 126.56 300.49 125.91 310.83 107.82 303.08 94.89 291.45 98.13 272.71 132.37 252.03 122.68 241.05 145.3 217.14 160.16 200.34 191.17 217.78 217.02 3.99 219.96"/>
</svg>