<?xml version="1.0" encoding="UTF-8"?>
<svg id="_レイヤー_2" data-name="レイヤー 2" xmlns="http://www.w3.org/2000/svg" viewBox="0 0 512 512">
  <defs>
    <style>
      .cls-1 {
        fill: #337fc3;
        opacity: .65;
        stroke: #060001;
        stroke-miterlimit: 10;
      }
    </style>
  </defs>
  <polygon class="cls-1" points="6.99 298.19 6.99 219.96 220.78 217.02 203.34 191.17 220.14 160.16 244.05 145.3 255.03 122.68 275.71 132.37 294.45 98.13 306.08 94.89 313.83 107.82 303.49 125.91 359.71 126.56 356.48 66.46 380.39 31.57 420.45 23.82 450.17 56.77 450.17 96.19 413.99 137.54 485.71 186.65 494.76 263.54 487.65 475.49 472.14 500.04 457.28 476.13 447.59 423.79 428.85 505.2 361.65 505.2 347.43 470.96 333.86 505.2 259 505.2 268.6 417.33 236.29 395.36 277.98 298.1 6.99 298.19"/>
</svg>