<?xml version="1.0" encoding="UTF-8"?>
<svg id="_レイヤー_2" data-name="レイヤー 2" xmlns="http://www.w3.org/2000/svg" viewBox="0 0 512 512">
  <defs>
    <style>
      .cls-1 {
        fill: #337fc3;
        opacity: .72;
        stroke: #060001;
        stroke-miterlimit: 10;
      }
    </style>
  </defs>
  <polygon class="cls-1" points="136.96 57.82 192.33 71.78 497.56 68.05 503.59 248.2 400.32 248.2 398.81 157.75 236.75 159.25 232.98 228.6 248.06 256 237.5 284.86 201.32 298.7 217.91 473.58 183.99 477.35 171.92 461.52 150.82 370.31 146.3 460.76 106.35 477.35 67.9 462.27 67.9 485.64 54.34 485.64 54.34 456.24 16.65 472.82 10.63 461.52 55.84 437.4 54.34 380.86 21.92 326.59 49.81 271.73 42.27 256 59.61 223.32 53.58 201.46 80.72 103.47 104.84 73.32 136.96 57.82"/>
</svg>