<?xml version="1.0" encoding="UTF-8"?>
<svg id="_レイヤー_2" data-name="レイヤー 2" xmlns="http://www.w3.org/2000/svg" viewBox="0 0 512 512">
  <defs>
    <style>
      .cls-1 {
        fill: #e71f19;
        opacity: .59;
      }
    </style>
  </defs>
  <path class="cls-1" d="M16.69,324.97v64.62h181.21l-10.42,30.39,37.22,9.68,28.66,49.12,21.21-5.58-8.19-56.57,61.41,6.7,6.7-16.37-7.07-17.86,27.54-9.68-22.33-20.84,22.33-19.35-17.12-24.93,6.33-23.07,30.89-21.59,14.89-36.84,9.68,13.4,72.94,28.28,23.82-18.47-4.47-23.21-78.9-21.59,3.72-43.17s-23.82-92.3-67.73-121.32-82.62-23.45-82.62-23.45c0,0-68.1,13.4-90.06,55.82s-53.96,112.39-21.59,160.03,23.82,35.36,23.82,35.36l-2.23,15.63,8.19,15.26,23.82,7.07-5.95,8.93-185.67,3.61Z"/>
</svg>