<?xml version="1.0" encoding="UTF-8"?>
<svg id="_レイヤー_2" data-name="レイヤー 2" xmlns="http://www.w3.org/2000/svg" viewBox="0 0 512 512">
  <defs>
    <style>
      .cls-1 {
        fill: #e71f19;
        opacity: .5;
      }
    </style>
  </defs>
  <path class="cls-1" d="M26.94,27.17v78.69h125.99l-10.46,20.93,15.07,145.25s-33.9-66.55-66.97-46.46-12.56,57.34-12.56,57.34c0,0,18,31.81,59.02,32.23,0,0-8.79,39.76,12.56,62.37s41.02,5.86,41.02,5.86l-3.35,10.05,53.21,45.24,11.09,44.71,22.03,12.31,63.51-88.13,59.62,3.24s37.59-24.63,37.59-45.36-9.72-57.03-22.68-65.45,22.68-16.85,22.68-16.85l38.23,42.12,14.26,5.18,8.42-24.63-16.2-16.85-35.64-11.66s19.44-3.24,16.85-35.64-35.64-36.29-35.64-36.29c0,0,20.74-10.37,20.74-31.75s-29.16-43.42-29.16-43.42v-15.55l-79.71-79.71-72.58-11.02-236.92,3.24Z"/>
</svg>